<svg width="101" height="52" viewBox="0 0 101 52" xmlns="http://www.w3.org/2000/svg" xmlns:xlink="http://www.w3.org/1999/xlink"><title>Group</title><defs><path id="a" d="M.522 34.83L68.712.694l31.99 16.192-67.37 34.678z"/><mask id="b" x="0" y="0" width="100.179" height="50.87" fill="#fff"><use xlink:href="#a"/></mask></defs><g fill="none" fill-rule="evenodd"><use stroke="#292C33" mask="url(#b)" stroke-width="4" fill="#0091FF" xlink:href="#a"/><path d="M44.335 26.542c.803.374 1.593.503 2.37.388.778-.114 1.545-.388 2.302-.82l-5.755-2.68c-.466.513-.614 1.06-.444 1.645.17.583.68 1.072 1.527 1.467zm13.884.162c-.058-.293-.22-.586-.483-.878-.265-.292-.672-.566-1.222-.822-.758-.354-1.573-.474-2.445-.362-.872.113-1.714.38-2.524.802l6.13 2.86c.194-.22.347-.467.46-.744.112-.277.14-.563.083-.856zM47.3 27.747c-.614.107-1.25.13-1.91.073-.66-.06-1.34-.252-2.033-.578-.65-.305-1.16-.656-1.53-1.053-.372-.398-.614-.813-.728-1.247-.114-.435-.103-.87.03-1.31.136-.44.377-.86.724-1.256l-1.63-.766.696-.706 1.63.766c.248-.23.533-.45.855-.665.322-.215.678-.408 1.066-.577.39-.17.802-.31 1.242-.42.44-.11.892-.176 1.36-.2l.152 1.256c-.72-.008-1.378.103-1.97.335-.593.23-1.07.52-1.435.866l6.228 2.926c.564-.28 1.147-.542 1.75-.783.602-.243 1.226-.416 1.872-.522.645-.107 1.31-.125 1.992-.056.683.07 1.394.278 2.134.626.635.298 1.137.645 1.508 1.042.37.397.61.818.713 1.262.103.443.082.897-.065 1.36-.146.462-.42.908-.82 1.338l1.63.766-.697.707-1.63-.766c-.69.653-1.51 1.14-2.466 1.46-.957.32-1.956.493-3 .52l-.078-1.265c.474.035.928.01 1.363-.07.435-.084.84-.192 1.214-.326.373-.133.703-.283.99-.45.285-.167.506-.33.66-.487l-6.5-3.055c-.48.263-1 .51-1.56.743-.56.233-1.148.402-1.76.51z" fill="#292C33"/></g></svg>